<svg width="754" height="744" viewBox="0 0 754 744" fill="none" xmlns="http://www.w3.org/2000/svg">
<circle cx="737" cy="405" r="15" fill="#B2B2B2"/>
<circle cx="730.5" cy="441.5" r="14.5" fill="#B2B2B2"/>
<circle cx="722" cy="477" r="14" fill="#B2B2B2"/>
<circle cx="709" cy="511" r="14" fill="#B2B2B2"/>
<circle cx="693" cy="545" r="14" fill="#B2B2B2"/>
<circle cx="674" cy="576" r="14" fill="#B2B2B2"/>
<circle cx="651" cy="604" r="14" fill="#B2B2B2"/>
<circle cx="625" cy="633" r="14" fill="#B2B2B2"/>
<circle cx="597.5" cy="656.5" r="13.5" fill="#B2B2B2"/>
<circle cx="566.5" cy="677.5" r="13.5" fill="#B2B2B2"/>
<circle cx="534.5" cy="695.5" r="13.5" fill="#B2B2B2"/>
<circle cx="500.5" cy="709.5" r="12.5" fill="#B2B2B2"/>
<circle cx="464.5" cy="720.5" r="12.5" fill="#B2B2B2"/>
<circle cx="429.5" cy="728.5" r="12.5" fill="#B2B2B2"/>
<circle cx="391" cy="732" r="12" fill="#B2B2B2"/>
<circle cx="354" cy="732" r="12" fill="#B2B2B2"/>
<circle cx="317.5" cy="728.5" r="11.5" fill="#B2B2B2"/>
<circle cx="282.5" cy="720.5" r="11.5" fill="#B2B2B2"/>
<circle cx="246.5" cy="707.5" r="10.5" fill="#B2B2B2"/>
<circle cx="211.5" cy="695.5" r="10.5" fill="#B2B2B2"/>
<circle cx="179.5" cy="676.5" r="10.5" fill="#B2B2B2"/>
<circle cx="150.5" cy="655.5" r="10.5" fill="#B2B2B2"/>
<circle cx="121.5" cy="632.5" r="10.5" fill="#B2B2B2"/>
<circle cx="97.5" cy="604.5" r="9.5" fill="#B2B2B2"/>
<circle cx="73.5" cy="576.5" r="9.5" fill="#B2B2B2"/>
<circle cx="54.5" cy="544.5" r="9.5" fill="#B2B2B2"/>
<circle cx="38.5" cy="511.5" r="9.5" fill="#B2B2B2"/>
<circle cx="25.5" cy="477.5" r="9.5" fill="#B2B2B2"/>
<circle cx="15.5" cy="441.5" r="9.5" fill="#B2B2B2"/>
<circle cx="9.5" cy="404.5" r="8.5" fill="#B2B2B2"/>
<circle cx="8.5" cy="368.5" r="8.5" fill="#B2B2B2"/>
<circle cx="9.5" cy="330.5" r="7.5" fill="#B2B2B2"/>
<circle cx="15.5" cy="294.5" r="7.5" fill="#B2B2B2"/>
<circle cx="25.5" cy="258.5" r="7.5" fill="#B2B2B2"/>
<circle cx="37.5" cy="223.5" r="7.5" fill="#B2B2B2"/>
<circle cx="53.5" cy="191.5" r="7.5" fill="#B2B2B2"/>
<circle cx="73" cy="160" r="7" fill="#B2B2B2"/>
<circle cx="95.5" cy="130.5" r="6.5" fill="#B2B2B2"/>
<circle cx="121.5" cy="103.5" r="6.5" fill="#B2B2B2"/>
<circle cx="149.5" cy="80.5" r="5.5" fill="#B2B2B2"/>
<circle cx="179.5" cy="58.5" r="5.5" fill="#B2B2B2"/>
<circle cx="212.5" cy="40.5" r="5.5" fill="#B2B2B2"/>
<circle cx="246.5" cy="25.5" r="5.5" fill="#B2B2B2"/>
<circle cx="281.5" cy="15.5" r="5.5" fill="#B2B2B2"/>
<circle cx="317.5" cy="7.5" r="5.5" fill="#B2B2B2"/>
<circle cx="354.5" cy="4.5" r="4.5" fill="#B2B2B2"/>
<circle cx="392.5" cy="4.5" r="4.5" fill="#B2B2B2"/>
<circle cx="428" cy="8" r="4" fill="#B2B2B2"/>
<circle cx="464.5" cy="14.5" r="3.5" fill="#B2B2B2"/>
<circle cx="500.5" cy="25.5" r="3.5" fill="#B2B2B2"/>
<circle cx="534.5" cy="40.5" r="3.5" fill="#B2B2B2"/>
<circle cx="567.5" cy="58.5" r="3.5" fill="#B2B2B2"/>
<circle cx="597.5" cy="79.5" r="3.5" fill="#B2B2B2"/>
<circle cx="625.5" cy="104.5" r="3.5" fill="#B2B2B2"/>
<circle cx="650.5" cy="131.5" r="3.5" fill="#B2B2B2"/>
<circle cx="673.5" cy="161.5" r="3.5" fill="#B2B2B2"/>
<circle cx="692.5" cy="191.5" r="2.5" fill="#B2B2B2"/>
<circle cx="709.5" cy="225.5" r="2.5" fill="#B2B2B2"/>
<circle cx="738.5" cy="368.5" r="15.5" fill="#B2B2B2"/>
</svg>
