<svg width="322" height="281" viewBox="0 0 322 281" fill="none" xmlns="http://www.w3.org/2000/svg">
<path fill-rule="evenodd" clip-rule="evenodd" d="M141 12V136.5H153.5V110C153.5 106.134 156.634 103 160.5 103C164.366 103 167.5 106.134 167.5 110V136.5H178.5V12L159.5 0L141 12ZM135 14.5L119.5 23.5L121 138.5L135 136.5V14.5ZM95 38V142L114.5 139V26.5L95 38ZM184.5 137V14.5L196 22.5V138L184.5 137ZM205.5 26.5V139L225 141.5V38L205.5 26.5ZM1.70904 180.687C73.0676 137.389 204.405 124.672 319.719 178.683C321.157 179.356 321.611 181.185 320.658 182.456C319.975 183.367 318.794 183.719 317.728 183.318C299.586 176.49 145.382 121.971 4.31501 185.405C3.49666 185.773 2.54049 185.724 1.77107 185.263C0.0355859 184.221 -0.0212576 181.737 1.70904 180.687ZM28.3906 218.309C25.7438 216.875 22.6505 216.158 19.1109 216.158H5V250H19.1109C22.6505 250 25.7438 249.267 28.3906 247.801C31.0692 246.303 33.1261 244.264 34.5611 241.683C35.9961 239.102 36.7136 236.202 36.7136 232.983C36.7136 229.733 35.9961 226.833 34.5611 224.284C33.1261 221.734 31.0692 219.743 28.3906 218.309ZM23.8464 238.576C22.4433 239.882 20.5459 240.536 18.1542 240.536H15.619V225.431H18.1542C20.5459 225.431 22.4433 226.084 23.8464 227.391C25.2495 228.697 25.9511 230.561 25.9511 232.983C25.9511 235.405 25.2495 237.269 23.8464 238.576ZM51.1671 228.777V224.618H63.1255V216.158H40.5481V250H63.1255V241.539H51.1671V236.759H61.6905V228.777H51.1671ZM107.834 216.158V250H97.2625V233.127L92.0487 250H82.9603L77.7465 233.127V250H67.1274V216.158H80.1382L87.6002 236.473L94.8709 216.158H107.834ZM136.016 218.309C133.369 216.875 130.276 216.158 126.736 216.158H112.625V250H126.736C130.276 250 133.369 249.267 136.016 247.801C138.695 246.303 140.751 244.264 142.186 241.683C143.621 239.102 144.339 236.202 144.339 232.983C144.339 229.733 143.621 226.833 142.186 224.284C140.751 221.734 138.695 219.743 136.016 218.309ZM131.472 238.576C130.069 239.882 128.171 240.536 125.78 240.536H123.244V225.431H125.78C128.171 225.431 130.069 226.084 131.472 227.391C132.875 228.697 133.576 230.561 133.576 232.983C133.576 235.405 132.875 237.269 131.472 238.576ZM158.601 244.885L156.927 250H145.782L158.171 216.158H170.416L182.757 250H171.564L169.89 244.885H158.601ZM167.307 236.903L164.245 227.486L161.184 236.903H167.307ZM195.836 237.859L202.198 250H213.87L206.503 237.046C208.863 236.281 210.665 235.023 211.909 233.27C213.184 231.517 213.822 229.51 213.822 227.247C213.822 225.144 213.328 223.264 212.339 221.607C211.382 219.918 209.931 218.595 207.986 217.639C206.041 216.652 203.697 216.158 200.955 216.158H185.17V250H195.789V237.859H195.836ZM199.998 230.784H195.789V225.048H199.998C200.987 225.048 201.736 225.303 202.246 225.813C202.788 226.323 203.059 227.024 203.059 227.916C203.059 228.904 202.804 229.637 202.294 230.115C201.784 230.561 201.018 230.784 199.998 230.784ZM228.981 241.539H242.566V250H217.214V242.017L230.608 224.57H217.214V216.158H242.566V224.14L228.981 241.539ZM272.696 241.539H259.111L272.696 224.14V216.158H247.344V224.57H260.737L247.344 242.017V250H272.696V241.539ZM310 216.158L297.85 239.723V250H287.231V239.723L275.082 216.158H287.231L292.636 228.155L298.042 216.158H310ZM19.2695 280V262.938H16.3516V275.184L8.67578 262.938H5.73437V280H8.67578V267.777L16.3281 280H19.2695ZM34.3141 280V262.938H31.3727V280H34.3141ZM59.4719 277.797V271.281H52.9914V273.473H56.5422V276.859C56.4016 277.008 56.2023 277.164 55.9445 277.328C55.6945 277.484 55.3547 277.621 54.925 277.738C54.4953 277.848 53.9445 277.902 53.2727 277.902C52.5852 277.902 51.968 277.777 51.4211 277.527C50.8742 277.27 50.4094 276.891 50.0266 276.391C49.6516 275.891 49.3625 275.277 49.1594 274.551C48.9641 273.824 48.8664 272.992 48.8664 272.055V270.848C48.8664 269.926 48.9523 269.105 49.1242 268.387C49.2961 267.668 49.55 267.059 49.8859 266.559C50.2297 266.059 50.6594 265.68 51.175 265.422C51.6906 265.164 52.2883 265.035 52.968 265.035C53.757 265.035 54.3977 265.172 54.8898 265.445C55.3898 265.711 55.7727 266.078 56.0383 266.547C56.3117 267.016 56.4953 267.547 56.5891 268.141H59.4719C59.3391 267.086 59.0227 266.148 58.5227 265.328C58.0227 264.508 57.3117 263.867 56.3898 263.406C55.4758 262.938 54.3195 262.703 52.9211 262.703C51.8273 262.703 50.8469 262.887 49.9797 263.254C49.1203 263.613 48.3859 264.145 47.7766 264.848C47.1672 265.551 46.6984 266.41 46.3703 267.426C46.05 268.434 45.8898 269.582 45.8898 270.871V272.055C45.8898 273.352 46.0656 274.508 46.4172 275.523C46.7687 276.531 47.2648 277.387 47.9055 278.09C48.5539 278.793 49.3234 279.328 50.2141 279.695C51.1047 280.055 52.0852 280.234 53.1555 280.234C54.4133 280.234 55.4641 280.098 56.3078 279.824C57.1516 279.551 57.8273 279.227 58.3352 278.852C58.8508 278.469 59.2297 278.117 59.4719 277.797ZM82.2977 280V277.668H74.0711V272.359H81.1141V270.062H74.0711V265.281H82.2391V262.938H74.0711H73.2391H71.1297V280H73.2391H74.0711H82.2977ZM99.1352 262.938H93.1V280H96.0414V273.414H99.3943L102.838 280H105.979V279.848L102.135 272.736C102.642 272.526 103.095 272.267 103.495 271.961C104.065 271.516 104.506 270.969 104.819 270.32C105.131 269.672 105.287 268.922 105.287 268.07C105.287 266.953 105.041 266.016 104.549 265.258C104.065 264.492 103.366 263.914 102.452 263.523C101.537 263.133 100.432 262.938 99.1352 262.938ZM96.0414 271.082H99.182C99.8852 271.082 100.471 270.957 100.94 270.707C101.409 270.457 101.76 270.117 101.995 269.688C102.237 269.25 102.358 268.758 102.358 268.211C102.358 267.617 102.241 267.102 102.006 266.664C101.78 266.219 101.428 265.879 100.952 265.645C100.475 265.402 99.8695 265.281 99.1352 265.281H96.0414V271.082ZM119.758 280V262.938H116.816V280H119.758ZM138.88 262.938H139.584L146.029 280H142.935L141.555 276.004H134.949L133.572 280H130.49L136.912 262.938H137.603H138.88ZM135.753 273.672H140.749L138.248 266.433L135.753 273.672ZM181.403 280V277.668H173.657V262.938H170.716V280H172.837H173.657H181.403ZM195.217 280V262.938H192.276V280H195.217ZM211.094 262.938H209.77H208.469H207.273V280H210.203V274.328L209.914 266.729L214.973 280H217.059L222.129 266.721L221.84 274.328V280H224.781V262.938H223.574H222.273H220.949L216.027 276.098L211.094 262.938ZM239.814 280V262.938H236.873V280H239.814ZM258.538 280V265.281H263.894V262.938H258.538H255.62H250.312V265.281H255.62V280H258.538ZM285.712 280V277.668H277.485V272.359H284.528V270.062H277.485V265.281H285.653V262.938H277.485H276.653H274.544V280H276.653H277.485H285.712ZM299.455 280H301.471C302.643 280 303.702 279.812 304.647 279.438C305.6 279.055 306.42 278.512 307.108 277.809C307.795 277.098 308.323 276.246 308.69 275.254C309.057 274.262 309.241 273.152 309.241 271.926V271.023C309.241 269.797 309.057 268.688 308.69 267.695C308.323 266.703 307.795 265.852 307.108 265.141C306.428 264.43 305.62 263.887 304.682 263.512C303.745 263.129 302.709 262.938 301.577 262.938H299.455H297.756H296.514V280H297.827H299.455ZM299.455 277.668H301.471C302.526 277.668 303.409 277.438 304.12 276.977C304.838 276.516 305.377 275.855 305.737 274.996C306.104 274.137 306.288 273.113 306.288 271.926V271C306.288 270.078 306.182 269.262 305.971 268.551C305.768 267.84 305.463 267.242 305.057 266.758C304.659 266.273 304.166 265.906 303.58 265.656C303.002 265.406 302.334 265.281 301.577 265.281H299.455V277.668Z" fill="#EAEAEA"/>
</svg>
